<svg width="33" height="32" viewBox="0 0 33 32" fill="none" xmlns="http://www.w3.org/2000/svg">
<g id="FacebookLogo">
<path id="Vector" d="M16.5 3C13.9288 3 11.4154 3.76244 9.27759 5.1909C7.13975 6.61935 5.47351 8.64968 4.48957 11.0251C3.50563 13.4006 3.24819 16.0144 3.7498 18.5362C4.25141 21.0579 5.48953 23.3743 7.30762 25.1924C9.1257 27.0105 11.4421 28.2486 13.9638 28.7502C16.4856 29.2518 19.0995 28.9944 21.4749 28.0104C23.8503 27.0265 25.8807 25.3603 27.3091 23.2224C28.7376 21.0846 29.5 18.5712 29.5 16C29.4964 12.5533 28.1256 9.24882 25.6884 6.81163C23.2512 4.37445 19.9467 3.00364 16.5 3ZM17.5 26.9538V19H20.5C20.7652 19 21.0196 18.8946 21.2071 18.7071C21.3946 18.5196 21.5 18.2652 21.5 18C21.5 17.7348 21.3946 17.4804 21.2071 17.2929C21.0196 17.1054 20.7652 17 20.5 17H17.5V14C17.5 13.4696 17.7107 12.9609 18.0858 12.5858C18.4609 12.2107 18.9696 12 19.5 12H21.5C21.7652 12 22.0196 11.8946 22.2071 11.7071C22.3946 11.5196 22.5 11.2652 22.5 11C22.5 10.7348 22.3946 10.4804 22.2071 10.2929C22.0196 10.1054 21.7652 10 21.5 10H19.5C18.4391 10 17.4217 10.4214 16.6716 11.1716C15.9214 11.9217 15.5 12.9391 15.5 14V17H12.5C12.2348 17 11.9804 17.1054 11.7929 17.2929C11.6054 17.4804 11.5 17.7348 11.5 18C11.5 18.2652 11.6054 18.5196 11.7929 18.7071C11.9804 18.8946 12.2348 19 12.5 19H15.5V26.9538C12.681 26.6964 10.0697 25.3622 8.2093 23.2287C6.3489 21.0952 5.3826 18.3266 5.5114 15.4988C5.6402 12.671 6.85419 10.0017 8.90085 8.04613C10.9475 6.09057 13.6693 4.9993 16.5 4.9993C19.3307 4.9993 22.0525 6.09057 24.0992 8.04613C26.1458 10.0017 27.3598 12.671 27.4886 15.4988C27.6174 18.3266 26.6511 21.0952 24.7907 23.2287C22.9303 25.3622 20.319 26.6964 17.5 26.9538Z" fill="#F7F7F7"/>
</g>
</svg>
