<svg width="33" height="32" viewBox="0 0 33 32" fill="none" xmlns="http://www.w3.org/2000/svg">
<g id="LinkedinLogo">
<path id="Vector" d="M27.5 3H5.5C4.96957 3 4.46086 3.21071 4.08579 3.58579C3.71071 3.96086 3.5 4.46957 3.5 5V27C3.5 27.5304 3.71071 28.0391 4.08579 28.4142C4.46086 28.7893 4.96957 29 5.5 29H27.5C28.0304 29 28.5391 28.7893 28.9142 28.4142C29.2893 28.0391 29.5 27.5304 29.5 27V5C29.5 4.46957 29.2893 3.96086 28.9142 3.58579C28.5391 3.21071 28.0304 3 27.5 3ZM27.5 27H5.5V5H27.5V27ZM12.5 14V22C12.5 22.2652 12.3946 22.5196 12.2071 22.7071C12.0196 22.8946 11.7652 23 11.5 23C11.2348 23 10.9804 22.8946 10.7929 22.7071C10.6054 22.5196 10.5 22.2652 10.5 22V14C10.5 13.7348 10.6054 13.4804 10.7929 13.2929C10.9804 13.1054 11.2348 13 11.5 13C11.7652 13 12.0196 13.1054 12.2071 13.2929C12.3946 13.4804 12.5 13.7348 12.5 14ZM23.5 17.5V22C23.5 22.2652 23.3946 22.5196 23.2071 22.7071C23.0196 22.8946 22.7652 23 22.5 23C22.2348 23 21.9804 22.8946 21.7929 22.7071C21.6054 22.5196 21.5 22.2652 21.5 22V17.5C21.5 16.837 21.2366 16.2011 20.7678 15.7322C20.2989 15.2634 19.663 15 19 15C18.337 15 17.7011 15.2634 17.2322 15.7322C16.7634 16.2011 16.5 16.837 16.5 17.5V22C16.5 22.2652 16.3946 22.5196 16.2071 22.7071C16.0196 22.8946 15.7652 23 15.5 23C15.2348 23 14.9804 22.8946 14.7929 22.7071C14.6054 22.5196 14.5 22.2652 14.5 22V14C14.5012 13.7551 14.5923 13.5191 14.756 13.3369C14.9197 13.1546 15.1446 13.0388 15.388 13.0114C15.6314 12.9839 15.8764 13.0468 16.0765 13.188C16.2767 13.3292 16.418 13.539 16.4738 13.7775C17.1502 13.3186 17.9389 13.0526 18.7552 13.0081C19.5714 12.9637 20.3844 13.1424 21.1067 13.5251C21.829 13.9078 22.4335 14.48 22.8551 15.1803C23.2768 15.8806 23.4997 16.6825 23.5 17.5ZM13 10.5C13 10.7967 12.912 11.0867 12.7472 11.3334C12.5824 11.58 12.3481 11.7723 12.074 11.8858C11.7999 11.9994 11.4983 12.0291 11.2074 11.9712C10.9164 11.9133 10.6491 11.7704 10.4393 11.5607C10.2296 11.3509 10.0867 11.0836 10.0288 10.7926C9.97094 10.5017 10.0006 10.2001 10.1142 9.92597C10.2277 9.65189 10.42 9.41762 10.6666 9.2528C10.9133 9.08797 11.2033 9 11.5 9C11.8978 9 12.2794 9.15804 12.5607 9.43934C12.842 9.72064 13 10.1022 13 10.5Z" fill="#F7F7F7"/>
</g>
</svg>
