<svg width="33" height="32" viewBox="0 0 33 32" fill="none" xmlns="http://www.w3.org/2000/svg">
<g id="TwitterLogo">
<path id="Vector" d="M31.4237 8.61752C31.3481 8.43478 31.22 8.27857 31.0555 8.16866C30.8911 8.05875 30.6978 8.00006 30.5 8.00002H26.6963C26.1644 7.09524 25.4076 6.34346 24.4992 5.81777C23.5909 5.29208 22.5619 5.01037 21.5125 5.00002C20.7306 4.98976 19.9546 5.13598 19.2301 5.43008C18.5056 5.72418 17.8472 6.16021 17.2937 6.71252C16.7241 7.27154 16.2719 7.93883 15.9639 8.67512C15.6559 9.41142 15.4981 10.2019 15.5 11V11.7613C10.4675 10.4338 6.35125 6.34002 6.3075 6.29627C6.17334 6.16092 6.0033 6.06672 5.8174 6.02477C5.6315 5.98283 5.43748 5.99487 5.2582 6.05949C5.07891 6.12411 4.92183 6.23862 4.80544 6.38952C4.68905 6.54043 4.61821 6.72145 4.60125 6.91127C4.0625 12.885 5.7975 16.8825 7.35125 19.1838C8.10885 20.3214 9.03048 21.3407 10.0862 22.2088C8.1825 24.4 5.185 25.5513 5.1525 25.5638C5.01139 25.6166 4.88405 25.7007 4.77999 25.8097C4.67594 25.9186 4.59785 26.0497 4.55158 26.1931C4.5053 26.3365 4.49203 26.4885 4.51275 26.6378C4.53347 26.787 4.58765 26.9296 4.67125 27.055C4.765 27.195 5.14 27.6863 6.05625 28.145C7.18875 28.7125 8.685 29 10.5 29C19.3337 29 26.715 22.1975 27.4688 13.445L31.2075 9.70752C31.3473 9.56759 31.4425 9.38934 31.481 9.19532C31.5195 9.0013 31.4995 8.80022 31.4237 8.61752ZM25.7987 12.2938C25.6273 12.4656 25.5242 12.694 25.5088 12.9363C25 20.8225 18.41 27 10.5 27C9.18 27 8.25 26.825 7.5975 26.615C9.03625 25.8338 11.0425 24.49 12.3325 22.555C12.4082 22.4412 12.4598 22.3131 12.4841 22.1786C12.5083 22.0442 12.5048 21.9061 12.4736 21.773C12.4425 21.64 12.3844 21.5147 12.3029 21.405C12.2214 21.2952 12.1184 21.2034 12 21.135C11.9412 21.1013 6.51125 17.8425 6.5 9.13502C8.5 10.76 12.1562 13.2813 16.3337 13.9838C16.4769 14.0079 16.6236 14.0006 16.7637 13.9623C16.9037 13.924 17.0338 13.8557 17.1448 13.7621C17.2558 13.6684 17.345 13.5518 17.4064 13.4202C17.4677 13.2886 17.4997 13.1452 17.5 13V11C17.4989 10.4666 17.6045 9.9383 17.8105 9.44628C18.0166 8.95426 18.319 8.50842 18.7 8.13502C19.0652 7.76914 19.5 7.48018 19.9788 7.28524C20.4576 7.09029 20.9706 6.99331 21.4875 7.00002C23.07 7.02002 24.5487 7.98502 25.1675 9.40127C25.2455 9.57932 25.3737 9.73079 25.5364 9.83713C25.6992 9.94347 25.8894 10.0001 26.0837 10H28.0837L25.7987 12.2938Z" fill="#F7F7F7"/>
</g>
</svg>
